<?xml version="1.0" encoding="UTF-8"?>
<!-- Meme by Ralf Schmitzer from NounProject.com -->
<svg width="200pt" height="200pt" version="1.1" viewBox="150 150 430 430" xmlns="http://www.w3.org/2000/svg">
 <g fill="#ff59b9">
  <path d="m532.49 309.4c0-65.281-63.066-118.39-140.59-118.39-77.527 0-140.59 53.113-140.59 118.39 0 7.332 0.80469 14.688 2.375 21.785 0.33203 3.8789-9.9141 16.184-15.43 22.793-12.602 15.117-24.508 29.406-15.91 40.438 3.2266 4.1523 8.3672 4.3008 12.5 4.4258 7.1328 0.19922 10.352 0.59375 12.047 7.5703 1.9023 7.8594 0.61328 18.055-0.63672 27.918-2.0586 16.25-4.1875 33.062 7.8203 42.703 9.5 7.6367 21.711 8.5156 30.066 8.5156 5.2383 0 10.418-0.41406 14.992-0.76953 3.6562-0.28906 7.043-0.57031 9.9453-0.57031 2.9766 0 4.0391 0.32422 4.293 0.42969 2.0859 0.80469 2.7383 2.0664 1.2734 12.082-1.2969 8.9258-3.4688 23.863 11.766 29.578 11.543 4.3281 42.891 5.8672 68.379 5.8672h0.007813c51.746 0 81.109-4.7656 87.234-14.156 1.9766-3.0117 2.2734-6.6367 0.8125-9.9453-29.719-67.633 9.6211-114.82 17.805-123.58 12.801-13.723 31.848-45.039 31.848-75.082zm-64.637 201.23c-7.8008 3.1094-32.699 6.7344-73.066 6.7344h-0.007812c-32.855 0-56.66-2.4805-63.188-4.9297-3.25-1.2227-3.8633-2.9453-2.3086-13.586 1.2266-8.457 3.293-22.613-10.551-28-2.5078-0.97656-5.5781-1.4336-9.6641-1.4336-3.2422 0-7.0312 0.29688-11.113 0.61328-4.5078 0.36328-9.168 0.73438-13.824 0.73438-9.7227 0-16.34-1.6719-20.801-5.2539-5.5508-4.4688-4.0273-16.531-2.4062-29.309 1.4141-11.195 2.8867-22.762 0.33203-33.262-4.4258-18.254-18.996-18.676-25.996-18.891-0.17188 0-0.35547-0.007812-0.53906-0.015625 1.9453-5.0469 10.176-14.918 14.887-20.57 11.172-13.41 20.824-24.988 18.52-35.398-1.3555-6.1211-2.043-12.395-2.043-18.656 0-57.125 56.43-103.6 125.8-103.6 69.363 0 125.8 46.469 125.8 103.6 0 22.812-14.355 50.504-27.875 64.984-26.383 28.277-45.668 78.676-21.949 136.24z"/>
  <path d="m390.8 279.8c-20.402 0-37 16.598-37 37 0 20.402 16.598 37 37 37 20.402 0 37-16.598 37-37 0-20.402-16.598-37-37-37zm0 59.199c-12.238 0-22.199-9.9609-22.199-22.199 0-12.238 9.9609-22.199 22.199-22.199s22.199 9.9609 22.199 22.199c0 12.238-9.9609 22.199-22.199 22.199z"/>
  <path d="m390.8 265.01c4.0938 0 7.3984-3.3164 7.3984-7.3984v-14.801c0-4.0859-3.3086-7.3984-7.3984-7.3984-4.0938 0-7.3984 3.3164-7.3984 7.3984v14.801c0 4.082 3.3047 7.3984 7.3984 7.3984z"/>
  <path d="m390.8 368.6c-4.0938 0-7.3984 3.3164-7.3984 7.3984v14.801c0 4.0938 3.3086 7.3984 7.3984 7.3984 4.0938 0 7.3984-3.3086 7.3984-7.3984v-14.801c0-4.082-3.3047-7.3984-7.3984-7.3984z"/>
  <path d="m464.8 309.4h-14.793c-4.0938 0-7.3984 3.3164-7.3984 7.3984 0 4.0859 3.3086 7.3984 7.3984 7.3984l14.793 0.003906c4.0938 0 7.3984-3.3164 7.3984-7.3984 0.003907-4.0859-3.3047-7.4023-7.3984-7.4023z"/>
  <path d="m339 316.8c0-4.0859-3.3164-7.3984-7.3984-7.3984h-14.801c-4.0859 0-7.3984 3.3164-7.3984 7.3984 0 4.0859 3.3164 7.3984 7.3984 7.3984h14.801c4.082 0 7.3984-3.3164 7.3984-7.3984z"/>
  <path d="m432.14 282.88c1.8945 0 3.7891-0.72656 5.2305-2.168l10.465-10.469c2.8945-2.8945 2.8945-7.5781 0-10.465-2.8945-2.8945-7.5703-2.8945-10.465 0l-10.465 10.469c-2.8945 2.8945-2.8945 7.5781 0 10.465 1.4453 1.4453 3.3398 2.168 5.2344 2.168z"/>
  <path d="m343.18 353.96-10.465 10.465c-2.8945 2.8945-2.8945 7.5703 0 10.465 1.4414 1.4414 3.3359 2.168 5.2305 2.168 1.8945 0 3.7891-0.72656 5.2305-2.168l10.465-10.465c2.8945-2.8945 2.8945-7.5703 0-10.465-2.8906-2.8945-7.5664-2.8867-10.461 0z"/>
  <path d="m437.37 353.96c-2.8945-2.8945-7.5703-2.8945-10.465 0-2.8945 2.8945-2.8945 7.5703 0 10.465l10.465 10.465c1.4414 1.4414 3.3359 2.168 5.2305 2.168 1.8945 0 3.7891-0.72656 5.2305-2.168 2.8945-2.8945 2.8945-7.5703 0-10.465z"/>
  <path d="m343.18 280.71c1.4414 1.4414 3.3359 2.168 5.2305 2.168s3.7891-0.72656 5.2305-2.168c2.8945-2.8867 2.8945-7.5703 0-10.465l-10.465-10.469c-2.8945-2.8945-7.5703-2.8945-10.465 0-2.8945 2.8867-2.8945 7.5703 0 10.465z"/>
 </g>
</svg>
